<svg width="157" height="157" viewBox="0 0 157 157" fill="none" xmlns="http://www.w3.org/2000/svg">
<rect width="157" height="157" rx="20" fill="#1DB9C3"/>
<path d="M63.7142 125.75C65.9555 122.925 69.0753 122.523 70.355 122.675L78.9673 122.333L110.2 123.7C115.907 124.497 124 123.586 124 120.511C122.921 116.41 114.35 116.6 110.2 117.207L70.355 118.574C66.7026 119.03 63.4375 115.651 62.2616 113.904C60.6014 111.353 58.3878 110.335 57.4885 110.145C38.7076 105.931 29.7841 114.132 31.133 121.991C35.3665 134.111 50.4673 132.736 57.4885 130.534C58.6299 130.117 61.473 128.575 63.7142 125.75Z" fill="white"/>
<path d="M91.9534 40.5292C89.1161 35.9834 86.0423 35.1913 84.8601 35.3635L68.9001 35.1913L43.4084 36.9133C38.6056 37.6594 29 37.7398 29 32.0919C29 26.444 38.3839 26.4096 43.0759 27.0984L70.5626 29.1647L84.8601 29.1647C88.8501 29.5779 91.3993 25.3191 92.1751 23.138C95.3671 18.8676 99.8596 18.7184 101.707 19.1776L126.09 22.277C127.753 22.4492 126.755 24.3433 126.09 23.9989C125.425 23.6545 100.709 23.9989 100.709 23.9989C98.8193 24.9425 99.9289 26.6466 100.709 26.754C101.49 26.8613 126.09 28.6481 126.09 28.6481C127.531 28.9925 126.755 30.5422 126.09 30.37C125.425 30.1978 100.377 30.7144 100.377 30.7144C98.936 31.2309 99.7118 33.2972 100.377 33.2972C101.042 33.2972 126.09 33.4694 126.09 33.4694C127.509 34.1582 126.681 34.9044 126.09 35.1913L100.377 37.2576C99.0468 38.3597 99.8226 39.4387 100.377 39.8405C108.468 39.7831 124.938 39.7027 126.09 39.8405C127.243 39.9783 126.94 41.0458 126.644 41.5624L101.707 44.834C99.6379 45.2932 94.7908 45.0751 91.9534 40.5292Z" fill="white"/>
<path d="M41.96 72.16L41.792 72.112L41.648 71.752L41.456 71.56H37.472V76.36H39.32L39.488 76.168L39.608 75.808L39.776 75.76V77.32L39.608 77.272L39.488 76.912L39.32 76.72H37.472V87.544L37.664 87.712L38.024 87.832L38.072 88H36.2L36.248 87.832L36.608 87.712L36.8 87.544V71.656L36.608 71.488L36.248 71.368L36.2 71.2H41.816L41.96 72.16ZM52.784 88.384C50.256 88.384 48.16 87.536 46.496 85.84C44.832 84.144 44 82.064 44 79.6C44 77.168 44.856 75.096 46.568 73.384C48.28 71.672 50.352 70.816 52.784 70.816C55.072 70.816 57.056 71.592 58.736 73.144C60.416 71.592 62.4 70.816 64.688 70.816C67.12 70.816 69.192 71.68 70.904 73.408C72.632 75.12 73.496 77.184 73.496 79.6C73.496 82.016 72.632 84.088 70.904 85.816C69.192 87.528 67.12 88.384 64.688 88.384C62.336 88.384 60.336 87.624 58.688 86.104C57.008 87.624 55.04 88.384 52.784 88.384ZM45.488 83.008C46.432 85.056 47.944 86.512 50.024 87.376C52.104 88.224 54.208 88.176 56.336 87.232C57.12 86.864 57.8 86.392 58.376 85.816C56.728 84.136 55.904 82.064 55.904 79.6C55.904 77.312 56.688 75.32 58.256 73.624C57.024 72.488 55.592 71.76 53.96 71.44C52.344 71.104 50.768 71.28 49.232 71.968C48.256 72.432 47.408 73.088 46.688 73.936C45.984 74.768 45.464 75.688 45.128 76.696C44.808 77.688 44.672 78.744 44.72 79.864C44.768 80.968 45.024 82.016 45.488 83.008ZM57.392 83.008C57.76 83.824 58.264 84.576 58.904 85.264C59.928 84.048 60.552 82.608 60.776 80.944C61.016 79.28 60.792 77.696 60.104 76.192C59.736 75.376 59.224 74.632 58.568 73.96C57.544 75.176 56.92 76.616 56.696 78.28C56.472 79.928 56.704 81.504 57.392 83.008ZM59.048 73.432C60.744 75.16 61.592 77.216 61.592 79.6C61.592 81.888 60.8 83.888 59.216 85.6C60.416 86.768 61.808 87.512 63.392 87.832C64.992 88.152 66.608 87.952 68.24 87.232C69.216 86.784 70.056 86.136 70.76 85.288C71.48 84.44 72 83.52 72.32 82.528C72.656 81.52 72.8 80.464 72.752 79.36C72.72 78.24 72.472 77.184 72.008 76.192C71.08 74.176 69.536 72.744 67.376 71.896C65.216 71.032 63.136 71.056 61.136 71.968C60.368 72.32 59.672 72.808 59.048 73.432ZM79.4975 71.2C80.7615 71.2 81.8895 71.368 82.8815 71.704C83.8735 72.04 84.6655 72.48 85.2575 73.024C85.8655 73.552 86.3615 74.192 86.7455 74.944C87.1455 75.68 87.4175 76.432 87.5615 77.2C87.7215 77.952 87.8015 78.752 87.8015 79.6C87.8015 80.752 87.6735 81.8 87.4175 82.744C87.1615 83.672 86.7295 84.552 86.1215 85.384C85.5295 86.2 84.6735 86.84 83.5535 87.304C82.4335 87.768 81.0815 88 79.4975 88H77.6975L77.7455 87.832L78.1055 87.712L78.2975 87.544V71.656L78.1055 71.488L77.7455 71.368L77.6975 71.2H79.4975ZM78.9695 87.64H79.4255C84.5295 87.64 87.0815 84.96 87.0815 79.6C87.0815 78.832 87.0175 78.112 86.8895 77.44C86.7775 76.752 86.5535 76.04 86.2175 75.304C85.8815 74.552 85.4335 73.912 84.8735 73.384C84.3295 72.856 83.5855 72.424 82.6415 72.088C81.7135 71.736 80.6415 71.56 79.4255 71.56H78.9695V87.64ZM93.8729 71.2L93.8249 71.368L93.4649 71.488L93.2729 71.656V87.544L93.4649 87.712L93.8249 87.832L93.8729 88H92.0009L92.0489 87.832L92.4089 87.712L92.6009 87.544V71.656L92.4089 71.488L92.0489 71.368L92.0009 71.2H93.8729ZM104.307 72.16L104.139 72.112L103.995 71.752L103.803 71.56H99.8186V76.36H101.667L101.835 76.168L101.955 75.808L102.123 75.76V77.32L101.955 77.272L101.835 76.912L101.667 76.72H99.8186V87.64H104.067L104.259 87.376L104.427 87.016L104.595 86.968L104.451 88H98.5466L98.5946 87.832L98.9546 87.712L99.1466 87.544V71.656L98.9546 71.488L98.5946 71.368L98.5466 71.2H104.163L104.307 72.16ZM114.021 88.384C112.117 88.384 110.181 87.88 108.213 86.872L108.069 87.016L107.925 87.376L107.733 87.424L107.589 84.976L107.781 85.024L108.117 85.792L108.429 86.176C109.933 87.408 111.797 88.024 114.021 88.024C115.541 88.024 116.853 87.672 117.957 86.968C119.077 86.248 119.637 85.288 119.637 84.088C119.637 83.4 119.421 82.784 118.989 82.24C118.573 81.68 118.021 81.216 117.333 80.848C116.661 80.48 115.909 80.136 115.077 79.816C114.261 79.48 113.437 79.152 112.605 78.832C111.773 78.496 111.013 78.144 110.325 77.776C109.653 77.408 109.101 76.944 108.669 76.384C108.253 75.824 108.045 75.2 108.045 74.512C108.045 73.312 108.533 72.4 109.509 71.776C110.501 71.136 111.837 70.816 113.517 70.816C114.957 70.816 116.413 71.168 117.885 71.872L118.029 71.728L118.173 71.368L118.389 71.32L118.509 73.504L118.293 73.456L118.053 72.832L117.741 72.448C117.245 72.032 116.589 71.72 115.773 71.512C114.957 71.288 114.141 71.176 113.325 71.176C112.013 71.176 110.909 71.432 110.013 71.944C109.117 72.456 108.669 73.216 108.669 74.224C108.669 75.104 109.069 75.872 109.869 76.528C110.669 77.168 111.645 77.704 112.797 78.136C113.949 78.568 115.093 79.008 116.229 79.456C117.381 79.888 118.357 80.456 119.157 81.16C119.957 81.864 120.357 82.696 120.357 83.656C120.357 84.76 120.037 85.68 119.397 86.416C118.773 87.152 118.005 87.664 117.093 87.952C116.181 88.24 115.157 88.384 114.021 88.384Z" fill="#FFFCFC"/>
<path d="M41.96 72.16L41.6853 73.1215L43.1795 73.5484L42.9489 72.0117L41.96 72.16ZM41.792 72.112L40.8635 72.4834L41.0457 72.9388L41.5173 73.0735L41.792 72.112ZM41.648 71.752L42.5765 71.3806L42.5002 71.19L42.3551 71.0449L41.648 71.752ZM41.456 71.56L42.1631 70.8529L41.8702 70.56H41.456V71.56ZM37.472 71.56V70.56H36.472V71.56H37.472ZM37.472 76.36H36.472V77.36H37.472V76.36ZM39.32 76.36V77.36H39.7738L40.0726 77.0185L39.32 76.36ZM39.488 76.168L40.2406 76.8265L40.3731 76.6751L40.4367 76.4842L39.488 76.168ZM39.608 75.808L39.3333 74.8465L38.8261 74.9914L38.6593 75.4918L39.608 75.808ZM39.776 75.76H40.776V74.4343L39.5013 74.7985L39.776 75.76ZM39.776 77.32L39.5013 78.2815L40.776 78.6457V77.32H39.776ZM39.608 77.272L38.6593 77.5882L38.8261 78.0886L39.3333 78.2335L39.608 77.272ZM39.488 76.912L40.4367 76.5958L40.3731 76.4049L40.2406 76.2535L39.488 76.912ZM39.32 76.72L40.0726 76.0615L39.7738 75.72H39.32V76.72ZM37.472 76.72V75.72H36.472V76.72H37.472ZM37.472 87.544H36.472V87.9978L36.8135 88.2966L37.472 87.544ZM37.664 87.712L37.0055 88.4646L37.1569 88.5971L37.3478 88.6607L37.664 87.712ZM38.024 87.832L38.9855 87.5573L38.8406 87.0501L38.3402 86.8833L38.024 87.832ZM38.072 88V89H39.3977L39.0335 87.7253L38.072 88ZM36.2 88L35.2385 87.7253L34.8743 89H36.2V88ZM36.248 87.832L35.9318 86.8833L35.4314 87.0501L35.2865 87.5573L36.248 87.832ZM36.608 87.712L36.9242 88.6607L37.1151 88.5971L37.2665 88.4646L36.608 87.712ZM36.8 87.544L37.4585 88.2966L37.8 87.9978V87.544H36.8ZM36.8 71.656H37.8V71.2022L37.4585 70.9034L36.8 71.656ZM36.608 71.488L37.2665 70.7354L37.1151 70.6029L36.9242 70.5393L36.608 71.488ZM36.248 71.368L35.2865 71.6427L35.4314 72.1499L35.9318 72.3167L36.248 71.368ZM36.2 71.2V70.2H34.8743L35.2385 71.4747L36.2 71.2ZM41.816 71.2L42.8049 71.0517L42.6772 70.2H41.816V71.2ZM42.2347 71.1985L42.0667 71.1505L41.5173 73.0735L41.6853 73.1215L42.2347 71.1985ZM42.7205 71.7406L42.5765 71.3806L40.7195 72.1234L40.8635 72.4834L42.7205 71.7406ZM42.3551 71.0449L42.1631 70.8529L40.7489 72.2671L40.9409 72.4591L42.3551 71.0449ZM41.456 70.56H37.472V72.56H41.456V70.56ZM36.472 71.56V76.36H38.472V71.56H36.472ZM37.472 77.36H39.32V75.36H37.472V77.36ZM40.0726 77.0185L40.2406 76.8265L38.7354 75.5095L38.5674 75.7015L40.0726 77.0185ZM40.4367 76.4842L40.5567 76.1242L38.6593 75.4918L38.5393 75.8518L40.4367 76.4842ZM39.8827 76.7695L40.0507 76.7215L39.5013 74.7985L39.3333 74.8465L39.8827 76.7695ZM38.776 75.76V77.32H40.776V75.76H38.776ZM40.0507 76.3585L39.8827 76.3105L39.3333 78.2335L39.5013 78.2815L40.0507 76.3585ZM40.5567 76.9558L40.4367 76.5958L38.5393 77.2282L38.6593 77.5882L40.5567 76.9558ZM40.2406 76.2535L40.0726 76.0615L38.5674 77.3785L38.7354 77.5705L40.2406 76.2535ZM39.32 75.72H37.472V77.72H39.32V75.72ZM36.472 76.72V87.544H38.472V76.72H36.472ZM36.8135 88.2966L37.0055 88.4646L38.3225 86.9594L38.1305 86.7914L36.8135 88.2966ZM37.3478 88.6607L37.7078 88.7807L38.3402 86.8833L37.9802 86.7633L37.3478 88.6607ZM37.0625 88.1067L37.1105 88.2747L39.0335 87.7253L38.9855 87.5573L37.0625 88.1067ZM38.072 87H36.2V89H38.072V87ZM37.1615 88.2747L37.2095 88.1067L35.2865 87.5573L35.2385 87.7253L37.1615 88.2747ZM36.5642 88.7807L36.9242 88.6607L36.2918 86.7633L35.9318 86.8833L36.5642 88.7807ZM37.2665 88.4646L37.4585 88.2966L36.1415 86.7914L35.9495 86.9594L37.2665 88.4646ZM37.8 87.544V71.656H35.8V87.544H37.8ZM37.4585 70.9034L37.2665 70.7354L35.9495 72.2406L36.1415 72.4086L37.4585 70.9034ZM36.9242 70.5393L36.5642 70.4193L35.9318 72.3167L36.2918 72.4367L36.9242 70.5393ZM37.2095 71.0933L37.1615 70.9253L35.2385 71.4747L35.2865 71.6427L37.2095 71.0933ZM36.2 72.2H41.816V70.2H36.2V72.2ZM40.8271 71.3483L40.9711 72.3083L42.9489 72.0117L42.8049 71.0517L40.8271 71.3483ZM46.496 85.84L45.7822 86.5403L46.496 85.84ZM58.736 73.144L58.0574 73.8785L58.736 74.5054L59.4146 73.8785L58.736 73.144ZM70.904 73.408L70.1936 74.1118L70.2002 74.1184L70.904 73.408ZM70.904 85.816L70.1969 85.1089L70.904 85.816ZM58.688 86.104L59.366 85.3689L58.6945 84.7496L58.0171 85.3625L58.688 86.104ZM45.488 83.008L46.3962 82.5894L46.3938 82.5843L45.488 83.008ZM50.024 87.376L49.6404 88.2995L49.6465 88.302L50.024 87.376ZM56.336 87.232L56.7415 88.1461L56.7513 88.1418L56.7609 88.1372L56.336 87.232ZM58.376 85.816L59.0831 86.5231L59.7834 85.8228L59.0899 85.1157L58.376 85.816ZM58.256 73.624L58.9903 74.3029L59.67 73.5676L58.9339 72.8888L58.256 73.624ZM53.96 71.44L53.7564 72.4191L53.7676 72.4213L53.96 71.44ZM49.232 71.968L48.8232 71.0554L48.8129 71.06L48.8026 71.0649L49.232 71.968ZM46.688 73.936L45.9257 73.2888L45.9246 73.2901L46.688 73.936ZM45.128 76.696L44.1793 76.3798L44.1763 76.389L45.128 76.696ZM44.72 79.864L43.7209 79.9068L43.7209 79.9074L44.72 79.864ZM57.392 83.008L58.3036 82.5969L58.3014 82.592L57.392 83.008ZM58.904 85.264L58.1718 85.9451L58.9412 86.7722L59.6689 85.9081L58.904 85.264ZM60.776 80.944L59.7862 80.8012L59.7849 80.8106L60.776 80.944ZM60.104 76.192L59.1924 76.6031L59.1946 76.608L60.104 76.192ZM58.568 73.96L59.2836 73.2615L58.5133 72.4724L57.8031 73.3159L58.568 73.96ZM56.696 78.28L57.6869 78.4147L57.6871 78.4134L56.696 78.28ZM59.048 73.432L58.3409 72.7249L57.6404 73.4254L58.3343 74.1325L59.048 73.432ZM59.216 85.6L58.482 84.9209L57.8198 85.6365L58.5185 86.3166L59.216 85.6ZM63.392 87.832L63.194 88.8122L63.1959 88.8126L63.392 87.832ZM68.24 87.232L68.6436 88.1469L68.6504 88.1439L68.6572 88.1408L68.24 87.232ZM70.76 85.288L69.9977 84.6407L69.9906 84.6492L70.76 85.288ZM72.32 82.528L71.3713 82.2118L71.3683 82.221L72.32 82.528ZM72.752 79.36L71.7524 79.3886L71.7526 79.396L71.7529 79.4034L72.752 79.36ZM72.008 76.192L71.0996 76.6102L71.1022 76.6157L72.008 76.192ZM67.376 71.896L67.0046 72.8245L67.0106 72.8268L67.376 71.896ZM61.136 71.968L60.7211 71.0581L60.7193 71.0589L61.136 71.968ZM52.784 87.384C50.5054 87.384 48.6728 86.6308 47.2098 85.1397L45.7822 86.5403C47.6472 88.4412 50.0066 89.384 52.784 89.384V87.384ZM47.2098 85.1397C45.7367 83.6382 45 81.8129 45 79.6H43C43 82.3151 43.9273 84.6498 45.7822 86.5403L47.2098 85.1397ZM45 79.6C45 77.4319 45.7516 75.6146 47.2751 74.0911L45.8609 72.6769C43.9604 74.5774 43 76.9041 43 79.6H45ZM47.2751 74.0911C48.7986 72.5676 50.6159 71.816 52.784 71.816V69.816C50.0881 69.816 47.7614 70.7764 45.8609 72.6769L47.2751 74.0911ZM52.784 71.816C54.8206 71.816 56.5623 72.4973 58.0574 73.8785L59.4146 72.4095C57.5497 70.6867 55.3234 69.816 52.784 69.816V71.816ZM59.4146 73.8785C60.9097 72.4973 62.6514 71.816 64.688 71.816V69.816C62.1486 69.816 59.9223 70.6867 58.0574 72.4095L59.4146 73.8785ZM64.688 71.816C66.8531 71.816 68.6694 72.5733 70.1936 74.1118L71.6144 72.7042C69.7146 70.7867 67.3869 69.816 64.688 69.816V71.816ZM70.2002 74.1184C71.7401 75.644 72.496 77.4529 72.496 79.6H74.496C74.496 76.9151 73.5239 74.596 71.6078 72.6976L70.2002 74.1184ZM72.496 79.6C72.496 81.7474 71.7398 83.566 70.1969 85.1089L71.6111 86.5231C73.5242 84.61 74.496 82.2846 74.496 79.6H72.496ZM70.1969 85.1089C68.6734 86.6324 66.8561 87.384 64.688 87.384V89.384C67.3839 89.384 69.7106 88.4236 71.6111 86.5231L70.1969 85.1089ZM64.688 87.384C62.5737 87.384 60.8196 86.7096 59.366 85.3689L58.01 86.8391C59.8524 88.5384 62.0983 89.384 64.688 89.384V87.384ZM58.0171 85.3625C56.5201 86.7169 54.7909 87.384 52.784 87.384V89.384C55.2891 89.384 57.4959 88.5311 59.3589 86.8455L58.0171 85.3625ZM44.5798 83.4266C45.6289 85.7025 47.328 87.339 49.6404 88.2995L50.4076 86.4525C48.56 85.685 47.2351 84.4095 46.3962 82.5894L44.5798 83.4266ZM49.6465 88.302C51.9884 89.2568 54.3751 89.1958 56.7415 88.1461L55.9305 86.3179C54.0409 87.1562 52.2196 87.1912 50.4015 86.45L49.6465 88.302ZM56.7609 88.1372C57.6431 87.7232 58.4202 87.186 59.0831 86.5231L57.6689 85.1089C57.1798 85.598 56.5969 86.0048 55.9111 86.3268L56.7609 88.1372ZM59.0899 85.1157C57.6346 83.6322 56.904 81.8158 56.904 79.6H54.904C54.904 82.3122 55.8214 84.6398 57.6621 86.5163L59.0899 85.1157ZM56.904 79.6C56.904 77.5663 57.5913 75.816 58.9903 74.3029L57.5217 72.9451C55.7847 74.824 54.904 77.0577 54.904 79.6H56.904ZM58.9339 72.8888C57.567 71.6285 55.9673 70.8146 54.1524 70.4587L53.7676 72.4213C55.2167 72.7054 56.481 73.3475 57.5781 74.3592L58.9339 72.8888ZM54.1636 70.4609C52.3372 70.0812 50.5472 70.2832 48.8232 71.0554L49.6408 72.8806C50.9888 72.2768 52.3508 72.1268 53.7564 72.4191L54.1636 70.4609ZM48.8026 71.0649C47.695 71.5914 46.7346 72.3361 45.9257 73.2888L47.4503 74.5832C48.0814 73.8399 48.817 73.2725 49.6614 72.8711L48.8026 71.0649ZM45.9246 73.2901C45.1406 74.2166 44.5566 75.2479 44.1793 76.3798L46.0767 77.0122C46.3714 76.1281 46.8274 75.3194 47.4514 74.5819L45.9246 73.2901ZM44.1763 76.389C43.8172 77.5021 43.6682 78.6773 43.7209 79.9068L45.7191 79.8212C45.6758 78.8107 45.7988 77.8739 46.0797 77.003L44.1763 76.389ZM43.7209 79.9074C43.7746 81.1419 44.0618 82.3192 44.5822 83.4317L46.3938 82.5843C45.9862 81.7128 45.7614 80.7941 45.7191 79.8206L43.7209 79.9074ZM56.4804 83.4191C56.8953 84.3391 57.4614 85.1815 58.1718 85.9451L59.6362 84.5829C59.0666 83.9705 58.6247 83.3089 58.3036 82.5969L56.4804 83.4191ZM59.6689 85.9081C60.8223 84.5385 61.5192 82.9186 61.7671 81.0774L59.7849 80.8106C59.5848 82.2974 59.0337 83.5575 58.1391 84.6199L59.6689 85.9081ZM61.7658 81.0868C62.0327 79.236 61.7827 77.4577 61.0134 75.776L59.1946 76.608C59.8013 77.9343 59.9993 79.324 59.7862 80.8012L61.7658 81.0868ZM61.0156 75.7809C60.5972 74.8532 60.0172 74.0129 59.2836 73.2615L57.8524 74.6585C58.4308 75.2511 58.8748 75.8988 59.1924 76.6031L61.0156 75.7809ZM57.8031 73.3159C56.6497 74.6855 55.9528 76.3054 55.7049 78.1466L57.6871 78.4134C57.8872 76.9266 58.4383 75.6665 59.3329 74.6041L57.8031 73.3159ZM55.7051 78.1453C55.4558 79.9798 55.7154 81.7468 56.4826 83.424L58.3014 82.592C57.6926 81.2612 57.4882 79.8762 57.6869 78.4147L55.7051 78.1453ZM58.3343 74.1325C59.85 75.6768 60.592 77.4825 60.592 79.6H62.592C62.592 76.9495 61.638 74.6432 59.7617 72.7315L58.3343 74.1325ZM60.592 79.6C60.592 81.6308 59.8987 83.3897 58.482 84.9209L59.95 86.2791C61.7013 84.3863 62.592 82.1452 62.592 79.6H60.592ZM58.5185 86.3166C59.851 87.6135 61.4145 88.4527 63.194 88.8122L63.59 86.8518C62.2015 86.5713 60.9811 85.9225 59.9135 84.8834L58.5185 86.3166ZM63.1959 88.8126C65.0167 89.1767 66.8417 88.9419 68.6436 88.1469L67.8364 86.3171C66.3743 86.9621 64.9673 87.1273 63.5881 86.8514L63.1959 88.8126ZM68.6572 88.1408C69.773 87.6287 70.7323 86.8869 71.5294 85.9268L69.9906 84.6492C69.3797 85.3851 68.659 85.9393 67.8228 86.3232L68.6572 88.1408ZM71.5223 85.9352C72.3213 84.9941 72.9088 83.9599 73.2717 82.835L71.3683 82.221C71.0912 83.0801 70.6387 83.8859 69.9977 84.6408L71.5223 85.9352ZM73.2687 82.8442C73.6448 81.7158 73.8041 80.5376 73.7511 79.3166L71.7529 79.4034C71.7959 80.3904 71.6672 81.3242 71.3713 82.2118L73.2687 82.8442ZM73.7516 79.3314C73.7158 78.0779 73.4371 76.8871 72.9138 75.7683L71.1022 76.6157C71.5069 77.4809 71.7242 78.4021 71.7524 79.3886L73.7516 79.3314ZM72.9164 75.7739C71.8751 73.5117 70.1297 71.9028 67.7414 70.9652L67.0106 72.8268C68.9423 73.5852 70.2849 74.8403 71.0996 76.6101L72.9164 75.7739ZM67.7474 70.9675C65.3503 70.0087 62.9854 70.0256 60.7211 71.0581L61.5509 72.8779C63.2866 72.0864 65.0817 72.0553 67.0046 72.8245L67.7474 70.9675ZM60.7193 71.0589C59.8385 71.4626 59.0451 72.0206 58.3409 72.7249L59.7551 74.1391C60.2989 73.5954 60.8975 73.1774 61.5527 72.8771L60.7193 71.0589ZM82.8815 71.704L82.5607 72.6511L82.8815 71.704ZM85.2575 73.024L84.5809 73.7603L84.5912 73.7698L84.6018 73.779L85.2575 73.024ZM86.7455 74.944L85.8549 75.3988L85.8607 75.4102L85.8669 75.4215L86.7455 74.944ZM87.5615 77.2L86.5786 77.3843L86.5809 77.3962L86.5834 77.4081L87.5615 77.2ZM87.4175 82.744L88.3815 83.0099L88.3826 83.0057L87.4175 82.744ZM86.1215 85.384L85.3141 84.794L85.3121 84.7968L86.1215 85.384ZM83.5535 87.304L83.1708 86.3801L83.5535 87.304ZM77.6975 88L76.736 87.7253L76.3718 89H77.6975V88ZM77.7455 87.832L77.4293 86.8833L76.9289 87.0501L76.784 87.5573L77.7455 87.832ZM78.1055 87.712L78.4217 88.6607L78.6126 88.5971L78.764 88.4646L78.1055 87.712ZM78.2975 87.544L78.956 88.2966L79.2975 87.9978V87.544H78.2975ZM78.2975 71.656H79.2975V71.2022L78.956 70.9034L78.2975 71.656ZM78.1055 71.488L78.764 70.7354L78.6126 70.6029L78.4217 70.5393L78.1055 71.488ZM77.7455 71.368L76.784 71.6427L76.9289 72.1499L77.4293 72.3167L77.7455 71.368ZM77.6975 71.2V70.2H76.3718L76.736 71.4747L77.6975 71.2ZM78.9695 87.64H77.9695V88.64H78.9695V87.64ZM86.8895 77.44L85.9025 77.6007L85.9047 77.6139L85.9072 77.6271L86.8895 77.44ZM86.2175 75.304L85.3045 75.712L85.3078 75.7193L86.2175 75.304ZM84.8735 73.384L84.177 74.1016L84.1822 74.1066L84.1875 74.1116L84.8735 73.384ZM82.6415 72.088L82.2868 73.023L82.2965 73.0266L82.3062 73.0301L82.6415 72.088ZM78.9695 71.56V70.56H77.9695V71.56H78.9695ZM79.4975 72.2C80.6742 72.2 81.6909 72.3565 82.5607 72.6511L83.2023 70.7569C82.0881 70.3795 80.8488 70.2 79.4975 70.2V72.2ZM82.5607 72.6511C83.4589 72.9554 84.1175 73.3346 84.5809 73.7603L85.9341 72.2877C85.2135 71.6254 84.2881 71.1246 83.2023 70.7569L82.5607 72.6511ZM84.6018 73.779C85.1083 74.2189 85.5263 74.7554 85.8549 75.3988L87.6361 74.4892C87.1967 73.6286 86.6227 72.8851 85.9132 72.269L84.6018 73.779ZM85.8669 75.4215C86.2206 76.0724 86.4552 76.726 86.5786 77.3843L88.5444 77.0157C88.3798 76.138 88.0704 75.2876 87.6241 74.4665L85.8669 75.4215ZM86.5834 77.4081C86.7274 78.0851 86.8015 78.8149 86.8015 79.6H88.8015C88.8015 78.6891 88.7156 77.8189 88.5396 76.9919L86.5834 77.4081ZM86.8015 79.6C86.8015 80.6788 86.6816 81.6371 86.4524 82.4823L88.3826 83.0057C88.6655 81.9629 88.8015 80.8252 88.8015 79.6H86.8015ZM86.4535 82.4781C86.2319 83.2815 85.8558 84.0527 85.3141 84.794L86.9289 85.974C87.6032 85.0513 88.0911 84.0625 88.3815 83.0099L86.4535 82.4781ZM85.3121 84.7968C84.8487 85.4356 84.1549 85.9724 83.1708 86.3801L83.9362 88.2279C85.1921 87.7076 86.2104 86.9644 86.9309 85.9712L85.3121 84.7968ZM83.1708 86.3801C82.2031 86.781 80.9885 87 79.4975 87V89C81.1745 89 82.6639 88.755 83.9362 88.2279L83.1708 86.3801ZM79.4975 87H77.6975V89H79.4975V87ZM78.659 88.2747L78.707 88.1067L76.784 87.5573L76.736 87.7253L78.659 88.2747ZM78.0617 88.7807L78.4217 88.6607L77.7893 86.7633L77.4293 86.8833L78.0617 88.7807ZM78.764 88.4646L78.956 88.2966L77.639 86.7914L77.447 86.9594L78.764 88.4646ZM79.2975 87.544V71.656H77.2975V87.544H79.2975ZM78.956 70.9034L78.764 70.7354L77.447 72.2406L77.639 72.4086L78.956 70.9034ZM78.4217 70.5393L78.0617 70.4193L77.4293 72.3167L77.7893 72.4367L78.4217 70.5393ZM78.707 71.0933L78.659 70.9253L76.736 71.4747L76.784 71.6427L78.707 71.0933ZM77.6975 72.2H79.4975V70.2H77.6975V72.2ZM78.9695 88.64H79.4255V86.64H78.9695V88.64ZM79.4255 88.64C82.1445 88.64 84.3642 87.9237 85.8917 86.3196C87.4105 84.7246 88.0815 82.4223 88.0815 79.6H86.0815C86.0815 82.1377 85.4765 83.8554 84.4433 84.9404C83.4188 86.0163 81.8105 86.64 79.4255 86.64V88.64ZM88.0815 79.6C88.0815 78.7767 88.0129 77.9935 87.8718 77.2529L85.9072 77.6271C86.0221 78.2305 86.0815 78.8873 86.0815 79.6H88.0815ZM87.8765 77.2793C87.7481 76.4906 87.4944 75.6931 87.1272 74.8887L85.3078 75.7193C85.6126 76.3869 85.8069 77.0134 85.9025 77.6007L87.8765 77.2793ZM87.1305 74.8961C86.7445 74.0321 86.2221 73.2811 85.5595 72.6564L84.1875 74.1116C84.6449 74.5428 85.0185 75.0719 85.3045 75.7119L87.1305 74.8961ZM85.57 72.6664C84.8956 72.0119 84.0145 71.5152 82.9768 71.1459L82.3062 73.0301C83.1565 73.3328 83.7634 73.7001 84.177 74.1016L85.57 72.6664ZM82.9962 71.153C81.9325 70.7496 80.7363 70.56 79.4255 70.56V72.56C80.5467 72.56 81.4945 72.7224 82.2868 73.023L82.9962 71.153ZM79.4255 70.56H78.9695V72.56H79.4255V70.56ZM77.9695 71.56V87.64H79.9695V71.56H77.9695ZM93.8729 71.2L94.8345 71.4747L95.1987 70.2H93.8729V71.2ZM93.8249 71.368L94.1412 72.3167L94.6416 72.1499L94.7865 71.6427L93.8249 71.368ZM93.4649 71.488L93.1487 70.5393L92.9578 70.6029L92.8064 70.7354L93.4649 71.488ZM93.2729 71.656L92.6144 70.9034L92.2729 71.2022V71.656H93.2729ZM93.2729 87.544H92.2729V87.9978L92.6144 88.2966L93.2729 87.544ZM93.4649 87.712L92.8064 88.4646L92.9578 88.5971L93.1487 88.6607L93.4649 87.712ZM93.8249 87.832L94.7865 87.5573L94.6416 87.0501L94.1412 86.8833L93.8249 87.832ZM93.8729 88V89H95.1987L94.8345 87.7253L93.8729 88ZM92.0009 88L91.0394 87.7253L90.6752 89H92.0009V88ZM92.0489 87.832L91.7327 86.8833L91.2323 87.0501L91.0874 87.5573L92.0489 87.832ZM92.4089 87.712L92.7252 88.6607L92.916 88.5971L93.0674 88.4646L92.4089 87.712ZM92.6009 87.544L93.2594 88.2966L93.6009 87.9978V87.544H92.6009ZM92.6009 71.656H93.6009V71.2022L93.2594 70.9034L92.6009 71.656ZM92.4089 71.488L93.0674 70.7354L92.916 70.6029L92.7252 70.5393L92.4089 71.488ZM92.0489 71.368L91.0874 71.6427L91.2323 72.1499L91.7327 72.3167L92.0489 71.368ZM92.0009 71.2V70.2H90.6752L91.0394 71.4747L92.0009 71.2ZM92.9114 70.9253L92.8634 71.0933L94.7865 71.6427L94.8345 71.4747L92.9114 70.9253ZM93.5087 70.4193L93.1487 70.5393L93.7812 72.4367L94.1412 72.3167L93.5087 70.4193ZM92.8064 70.7354L92.6144 70.9034L93.9314 72.4086L94.1234 72.2406L92.8064 70.7354ZM92.2729 71.656V87.544H94.2729V71.656H92.2729ZM92.6144 88.2966L92.8064 88.4646L94.1234 86.9594L93.9314 86.7914L92.6144 88.2966ZM93.1487 88.6607L93.5087 88.7807L94.1412 86.8833L93.7812 86.7633L93.1487 88.6607ZM92.8634 88.1067L92.9114 88.2747L94.8345 87.7253L94.7865 87.5573L92.8634 88.1067ZM93.8729 87H92.0009V89H93.8729V87ZM92.9625 88.2747L93.0105 88.1067L91.0874 87.5573L91.0394 87.7253L92.9625 88.2747ZM92.3652 88.7807L92.7252 88.6607L92.0927 86.7633L91.7327 86.8833L92.3652 88.7807ZM93.0674 88.4646L93.2594 88.2966L91.9424 86.7914L91.7504 86.9594L93.0674 88.4646ZM93.6009 87.544V71.656H91.6009V87.544H93.6009ZM93.2594 70.9034L93.0674 70.7354L91.7504 72.2406L91.9424 72.4086L93.2594 70.9034ZM92.7252 70.5393L92.3652 70.4193L91.7327 72.3167L92.0927 72.4367L92.7252 70.5393ZM93.0105 71.0933L92.9625 70.9253L91.0394 71.4747L91.0874 71.6427L93.0105 71.0933ZM92.0009 72.2H93.8729V70.2H92.0009V72.2ZM104.307 72.16L104.032 73.1215L105.526 73.5484L105.296 72.0117L104.307 72.16ZM104.139 72.112L103.21 72.4834L103.392 72.9388L103.864 73.0735L104.139 72.112ZM103.995 71.752L104.923 71.3806L104.847 71.19L104.702 71.0449L103.995 71.752ZM103.803 71.56L104.51 70.8529L104.217 70.56H103.803V71.56ZM99.8186 71.56V70.56H98.8186V71.56H99.8186ZM99.8186 76.36H98.8186V77.36H99.8186V76.36ZM101.667 76.36V77.36H102.12L102.419 77.0185L101.667 76.36ZM101.835 76.168L102.587 76.8265L102.72 76.6751L102.783 76.4842L101.835 76.168ZM101.955 75.808L101.68 74.8465L101.173 74.9914L101.006 75.4918L101.955 75.808ZM102.123 75.76H103.123V74.4343L101.848 74.7985L102.123 75.76ZM102.123 77.32L101.848 78.2815L103.123 78.6457V77.32H102.123ZM101.955 77.272L101.006 77.5882L101.173 78.0886L101.68 78.2335L101.955 77.272ZM101.835 76.912L102.783 76.5958L102.72 76.4049L102.587 76.2535L101.835 76.912ZM101.667 76.72L102.419 76.0615L102.12 75.72H101.667V76.72ZM99.8186 76.72V75.72H98.8186V76.72H99.8186ZM99.8186 87.64H98.8186V88.64H99.8186V87.64ZM104.067 87.64V88.64H104.576L104.875 88.2282L104.067 87.64ZM104.259 87.376L105.067 87.9642L105.124 87.8862L105.165 87.7989L104.259 87.376ZM104.427 87.016L104.152 86.0545L103.713 86.1798L103.52 86.5931L104.427 87.016ZM104.595 86.968L105.585 87.1062L105.797 85.5843L104.32 86.0065L104.595 86.968ZM104.451 88V89H105.321L105.441 88.1382L104.451 88ZM98.5466 88L97.585 87.7253L97.2208 89H98.5466V88ZM98.5946 87.832L98.2783 86.8833L97.7779 87.0501L97.633 87.5573L98.5946 87.832ZM98.9546 87.712L99.2708 88.6607L99.4617 88.5971L99.6131 88.4646L98.9546 87.712ZM99.1466 87.544L99.8051 88.2966L100.147 87.9978V87.544H99.1466ZM99.1466 71.656H100.147V71.2022L99.8051 70.9034L99.1466 71.656ZM98.9546 71.488L99.6131 70.7354L99.4617 70.6029L99.2708 70.5393L98.9546 71.488ZM98.5946 71.368L97.633 71.6427L97.7779 72.1499L98.2783 72.3167L98.5946 71.368ZM98.5466 71.2V70.2H97.2208L97.585 71.4747L98.5466 71.2ZM104.163 71.2L105.151 71.0517L105.024 70.2H104.163V71.2ZM104.581 71.1985L104.413 71.1505L103.864 73.0735L104.032 73.1215L104.581 71.1985ZM105.067 71.7406L104.923 71.3806L103.066 72.1234L103.21 72.4834L105.067 71.7406ZM104.702 71.0449L104.51 70.8529L103.095 72.2671L103.287 72.4591L104.702 71.0449ZM103.803 70.56H99.8186V72.56H103.803V70.56ZM98.8186 71.56V76.36H100.819V71.56H98.8186ZM99.8186 77.36H101.667V75.36H99.8186V77.36ZM102.419 77.0185L102.587 76.8265L101.082 75.5095L100.914 75.7015L102.419 77.0185ZM102.783 76.4842L102.903 76.1242L101.006 75.4918L100.886 75.8518L102.783 76.4842ZM102.229 76.7695L102.397 76.7215L101.848 74.7985L101.68 74.8465L102.229 76.7695ZM101.123 75.76V77.32H103.123V75.76H101.123ZM102.397 76.3585L102.229 76.3105L101.68 78.2335L101.848 78.2815L102.397 76.3585ZM102.903 76.9558L102.783 76.5958L100.886 77.2282L101.006 77.5882L102.903 76.9558ZM102.587 76.2535L102.419 76.0615L100.914 77.3785L101.082 77.5705L102.587 76.2535ZM101.667 75.72H99.8186V77.72H101.667V75.72ZM98.8186 76.72V87.64H100.819V76.72H98.8186ZM99.8186 88.64H104.067V86.64H99.8186V88.64ZM104.875 88.2282L105.067 87.9642L103.45 86.7878L103.258 87.0518L104.875 88.2282ZM105.165 87.7989L105.333 87.4389L103.52 86.5931L103.352 86.9531L105.165 87.7989ZM104.701 87.9775L104.869 87.9295L104.32 86.0065L104.152 86.0545L104.701 87.9775ZM103.604 86.8298L103.46 87.8618L105.441 88.1382L105.585 87.1062L103.604 86.8298ZM104.451 87H98.5466V89H104.451V87ZM99.5081 88.2747L99.5561 88.1067L97.633 87.5573L97.585 87.7253L99.5081 88.2747ZM98.9108 88.7807L99.2708 88.6607L98.6383 86.7633L98.2783 86.8833L98.9108 88.7807ZM99.6131 88.4646L99.8051 88.2966L98.4881 86.7914L98.2961 86.9594L99.6131 88.4646ZM100.147 87.544V71.656H98.1466V87.544H100.147ZM99.8051 70.9034L99.6131 70.7354L98.2961 72.2406L98.4881 72.4086L99.8051 70.9034ZM99.2708 70.5393L98.9108 70.4193L98.2783 72.3167L98.6383 72.4367L99.2708 70.5393ZM99.5561 71.0933L99.5081 70.9253L97.585 71.4747L97.633 71.6427L99.5561 71.0933ZM98.5466 72.2H104.163V70.2H98.5466V72.2ZM103.174 71.3483L103.318 72.3083L105.296 72.0117L105.151 71.0517L103.174 71.3483ZM108.213 86.872L108.669 85.982L108.021 85.65L107.506 86.1649L108.213 86.872ZM108.069 87.016L107.362 86.3089L107.217 86.454L107.14 86.6446L108.069 87.016ZM107.925 87.376L108.167 88.3461L108.663 88.2221L108.853 87.7474L107.925 87.376ZM107.733 87.424L106.734 87.4827L106.805 88.6866L107.975 88.3941L107.733 87.424ZM107.589 84.976L107.831 84.0059L106.511 83.6757L106.59 85.0347L107.589 84.976ZM107.781 85.024L108.697 84.6232L108.5 84.173L108.023 84.0539L107.781 85.024ZM108.117 85.792L107.201 86.1928L107.255 86.3172L107.341 86.4226L108.117 85.792ZM108.429 86.176L107.653 86.8066L107.717 86.8853L107.795 86.9496L108.429 86.176ZM117.957 86.968L118.494 87.8112L118.498 87.8092L117.957 86.968ZM118.989 82.24L118.186 82.8363L118.196 82.8493L118.206 82.8619L118.989 82.24ZM117.333 80.848L116.852 81.7251L116.861 81.7298L117.333 80.848ZM115.077 79.816L114.696 80.7407L114.707 80.7451L114.718 80.7493L115.077 79.816ZM112.605 78.832L112.23 79.7592L112.238 79.7624L112.246 79.7653L112.605 78.832ZM110.325 77.776L109.844 78.6531L109.853 78.6578L110.325 77.776ZM108.669 76.384L107.866 76.9803L107.871 76.9876L107.877 76.9948L108.669 76.384ZM109.509 71.776L110.047 72.6185L110.051 72.6163L109.509 71.776ZM117.885 71.872L117.453 72.7741L118.092 73.0794L118.592 72.5791L117.885 71.872ZM118.029 71.728L118.736 72.4351L118.881 72.29L118.957 72.0994L118.029 71.728ZM118.173 71.368L117.956 70.3918L117.44 70.5064L117.244 70.9966L118.173 71.368ZM118.389 71.32L119.387 71.2651L119.323 70.0881L118.172 70.3438L118.389 71.32ZM118.509 73.504L118.292 74.4802L119.58 74.7664L119.507 73.4491L118.509 73.504ZM118.293 73.456L117.359 73.815L117.552 74.3158L118.076 74.4322L118.293 73.456ZM118.053 72.832L118.986 72.473L118.929 72.3247L118.829 72.2014L118.053 72.832ZM117.741 72.448L118.517 71.8174L118.457 71.7432L118.383 71.6818L117.741 72.448ZM115.773 71.512L115.508 72.4763L115.517 72.4788L115.526 72.481L115.773 71.512ZM110.013 71.944L110.509 72.8122L110.013 71.944ZM109.869 76.528L109.235 77.3013L109.244 77.3089L109.869 76.528ZM116.229 79.456L115.862 80.3863L115.87 80.3894L115.878 80.3923L116.229 79.456ZM119.157 81.16L119.817 80.4093L119.157 81.16ZM119.397 86.416L118.642 85.7598L118.634 85.7693L119.397 86.416ZM117.093 87.952L117.394 88.9056L117.093 87.952ZM114.021 87.384C112.299 87.384 110.518 86.9294 108.669 85.982L107.757 87.762C109.843 88.8306 111.934 89.384 114.021 89.384V87.384ZM107.506 86.1649L107.362 86.3089L108.776 87.7231L108.92 87.5791L107.506 86.1649ZM107.14 86.6446L106.996 87.0046L108.853 87.7474L108.997 87.3874L107.14 86.6446ZM107.682 86.4059L107.49 86.4539L107.975 88.3941L108.167 88.3461L107.682 86.4059ZM108.731 87.3653L108.587 84.9173L106.59 85.0347L106.734 87.4827L108.731 87.3653ZM107.346 85.9461L107.538 85.9941L108.023 84.0539L107.831 84.0059L107.346 85.9461ZM106.865 85.4248L107.201 86.1928L109.033 85.3912L108.697 84.6232L106.865 85.4248ZM107.341 86.4226L107.653 86.8066L109.205 85.5454L108.893 85.1614L107.341 86.4226ZM107.795 86.9496C109.503 88.3488 111.601 89.024 114.021 89.024V87.024C111.993 87.024 110.362 86.4672 109.062 85.4024L107.795 86.9496ZM114.021 89.024C115.7 89.024 117.205 88.6332 118.494 87.8112L117.419 86.1248C116.5 86.7108 115.382 87.024 114.021 87.024V89.024ZM118.498 87.8092C119.867 86.9291 120.637 85.6702 120.637 84.088H118.637C118.637 84.9058 118.287 85.5669 117.416 86.1268L118.498 87.8092ZM120.637 84.088C120.637 83.1718 120.343 82.3371 119.772 81.6181L118.206 82.8619C118.499 83.2309 118.637 83.6282 118.637 84.088H120.637ZM119.791 81.6437C119.278 80.9519 118.607 80.3955 117.804 79.9662L116.861 81.7298C117.435 82.0365 117.868 82.4081 118.186 82.8363L119.791 81.6437ZM117.813 79.9709C117.096 79.5783 116.303 79.2162 115.436 78.8827L114.718 80.7493C115.515 81.0558 116.225 81.3817 116.852 81.7251L117.813 79.9709ZM115.458 78.8913C114.634 78.5523 113.803 78.2214 112.964 77.8987L112.246 79.7653C113.071 80.0826 113.887 80.4077 114.696 80.7407L115.458 78.8913ZM112.979 77.9048C112.176 77.5802 111.449 77.2431 110.796 76.8942L109.853 78.6578C110.577 79.0449 111.37 79.4118 112.23 79.7592L112.979 77.9048ZM110.805 76.8989C110.244 76.5916 109.801 76.215 109.461 75.7732L107.877 76.9948C108.4 77.673 109.062 78.2244 109.844 78.6531L110.805 76.8989ZM109.471 75.7877C109.182 75.3975 109.045 74.982 109.045 74.512H107.045C107.045 75.418 107.324 76.2505 107.866 76.9803L109.471 75.7877ZM109.045 74.512C109.045 73.6383 109.371 73.0509 110.047 72.6185L108.97 70.9335C107.694 71.7491 107.045 72.9857 107.045 74.512H109.045ZM110.051 72.6163C110.827 72.1159 111.951 71.816 113.517 71.816V69.816C111.722 69.816 110.175 70.1561 108.967 70.9357L110.051 72.6163ZM113.517 71.816C114.789 71.816 116.098 72.1259 117.453 72.7741L118.316 70.9699C116.728 70.21 115.125 69.816 113.517 69.816V71.816ZM118.592 72.5791L118.736 72.4351L117.322 71.0209L117.178 71.1649L118.592 72.5791ZM118.957 72.0994L119.101 71.7394L117.244 70.9966L117.1 71.3566L118.957 72.0994ZM118.39 72.3442L118.606 72.2962L118.172 70.3438L117.956 70.3918L118.39 72.3442ZM117.39 71.3749L117.51 73.5589L119.507 73.4491L119.387 71.2651L117.39 71.3749ZM118.726 72.5278L118.51 72.4798L118.076 74.4322L118.292 74.4802L118.726 72.5278ZM119.226 73.097L118.986 72.473L117.119 73.191L117.359 73.815L119.226 73.097ZM118.829 72.2014L118.517 71.8174L116.965 73.0786L117.277 73.4626L118.829 72.2014ZM118.383 71.6818C117.743 71.1449 116.939 70.7773 116.02 70.543L115.526 72.481C116.238 72.6627 116.746 72.9191 117.098 73.2142L118.383 71.6818ZM116.037 70.5477C115.138 70.3009 114.233 70.176 113.325 70.176V72.176C114.048 72.176 114.775 72.2751 115.508 72.4763L116.037 70.5477ZM113.325 70.176C111.885 70.176 110.599 70.457 109.517 71.0758L110.509 72.8122C111.218 72.407 112.14 72.176 113.325 72.176V70.176ZM109.517 71.0758C108.318 71.7606 107.669 72.8467 107.669 74.224H109.669C109.669 73.5853 109.915 73.1514 110.509 72.8122L109.517 71.0758ZM107.669 74.224C107.669 75.4576 108.248 76.4925 109.235 77.3013L110.503 75.7547C109.889 75.2515 109.669 74.7504 109.669 74.224H107.669ZM109.244 77.3089C110.141 78.0265 111.214 78.6105 112.446 79.0723L113.148 77.1997C112.075 76.7975 111.196 76.3095 110.493 75.7471L109.244 77.3089ZM112.446 79.0723C113.592 79.5024 114.731 79.9404 115.862 80.3863L116.596 78.5257C115.454 78.0756 114.305 77.6336 113.148 77.1997L112.446 79.0723ZM115.878 80.3923C116.933 80.7882 117.8 81.2982 118.496 81.9107L119.817 80.4093C118.913 79.6138 117.828 78.9878 116.58 78.5197L115.878 80.3923ZM118.496 81.9107C119.107 82.4482 119.357 83.017 119.357 83.656H121.357C121.357 82.375 120.807 81.2798 119.817 80.4093L118.496 81.9107ZM119.357 83.656C119.357 84.5528 119.103 85.2299 118.642 85.7598L120.151 87.0722C120.971 86.1301 121.357 84.9672 121.357 83.656H119.357ZM118.634 85.7693C118.131 86.3629 117.522 86.7677 116.792 86.9984L117.394 88.9056C118.487 88.5603 119.415 87.9411 120.16 87.0627L118.634 85.7693ZM116.792 86.9984C115.993 87.2505 115.073 87.384 114.021 87.384V89.384C115.24 89.384 116.368 89.2295 117.394 88.9056L116.792 86.9984Z" fill="white"/>
</svg>
